<?xml version="1.0" standalone="no"?>
<!DOCTYPE svg PUBLIC "-//W3C//DTD SVG 20010904//EN"
 "http://www.w3.org/TR/2001/REC-SVG-20010904/DTD/svg10.dtd">
<svg version="1.0" xmlns="http://www.w3.org/2000/svg"
 width="700.000000pt" height="700.000000pt" viewBox="0 0 700.000000 700.000000"
 preserveAspectRatio="xMidYMid meet">
<metadata>
Created by potrace 1.14, written by Peter Selinger 2001-2017
</metadata>
<g transform="translate(0.000000,700.000000) scale(0.100000,-0.100000)"
fill="#000000" stroke="none">
<path d="M6817 5884 c-3 -3 -177 -8 -622 -19 -132 -4 -253 -8 -270 -11 -96
-16 -145 -126 -92 -205 17 -26 51 -48 137 -90 63 -31 115 -60 117 -65 1 -5
-137 -108 -307 -229 -171 -121 -321 -228 -333 -237 -12 -9 -301 -215 -642
-458 -341 -242 -640 -456 -665 -474 -25 -18 -163 -117 -308 -220 -232 -165
-265 -186 -280 -174 -9 7 -67 58 -127 113 -197 178 -309 279 -354 320 -25 22
-57 51 -71 65 -33 31 -187 170 -249 225 -24 22 -54 49 -66 60 -11 11 -65 61
-120 110 -55 50 -120 108 -144 130 -24 22 -49 45 -55 50 -37 32 -214 193 -232
210 -11 11 -59 54 -105 96 -244 221 -257 229 -350 229 -49 0 -111 -26 -149
-61 -14 -13 -86 -78 -160 -144 -74 -66 -140 -124 -146 -130 -6 -5 -44 -39 -84
-75 -41 -36 -124 -110 -184 -164 -61 -55 -129 -115 -151 -135 -22 -20 -63 -56
-90 -81 -28 -25 -83 -74 -124 -110 -41 -36 -88 -78 -106 -95 -18 -16 -63 -57
-100 -90 -38 -33 -73 -65 -79 -70 -6 -6 -66 -59 -133 -119 -145 -129 -165
-158 -169 -243 -8 -167 156 -284 308 -220 33 14 86 55 168 131 25 22 86 77
135 121 50 44 95 85 101 90 10 9 89 79 224 199 30 27 91 82 135 121 44 40 150
134 235 210 162 144 278 248 338 302 40 37 29 41 122 -43 39 -35 290 -262 429
-389 25 -22 55 -49 66 -60 12 -11 41 -38 66 -59 24 -21 69 -62 99 -90 30 -28
123 -112 205 -186 83 -74 157 -142 165 -150 8 -8 58 -53 110 -100 94 -84 146
-132 206 -186 35 -33 170 -155 255 -231 71 -64 131 -88 200 -80 28 4 67 16 87
27 20 12 365 256 766 543 402 286 801 570 886 631 85 60 178 126 205 146 28
21 154 111 280 200 127 90 301 215 389 277 87 63 160 112 163 110 2 -3 6 -36
9 -73 10 -161 16 -179 68 -219 57 -44 149 -26 190 37 8 13 65 138 126 278 62
140 122 278 135 305 90 201 125 287 125 310 0 37 -28 93 -55 111 -21 13 -120
35 -128 28z"/>
<path d="M6078 4546 c-13 -7 -48 -30 -79 -52 -69 -47 -330 -235 -344 -247 -5
-4 -129 -94 -275 -199 -146 -105 -458 -331 -695 -501 -236 -171 -512 -369
-611 -441 -100 -72 -258 -186 -351 -253 -93 -67 -174 -123 -180 -125 -5 -2
-46 31 -90 72 -43 41 -144 136 -223 210 -79 74 -160 151 -181 170 -20 19 -92
87 -160 150 -67 63 -139 131 -160 150 -43 41 -258 243 -309 290 -19 18 -96 90
-170 160 -74 70 -151 142 -170 160 -19 18 -62 58 -95 89 -81 78 -107 93 -159
93 -49 1 -81 -15 -148 -77 -23 -22 -113 -103 -198 -179 -85 -77 -195 -176
-245 -221 -49 -45 -117 -106 -150 -136 -34 -30 -97 -86 -140 -126 -44 -39 -90
-80 -101 -90 -12 -10 -61 -55 -110 -99 -49 -44 -155 -140 -236 -213 -119 -107
-150 -140 -157 -169 -6 -22 -10 -379 -9 -884 l0 -848 28 -44 c20 -31 39 -47
66 -56 53 -18 5703 -19 5756 -1 41 14 71 44 85 86 6 19 10 604 9 1637 -1 1606
-1 1607 -22 1634 -46 62 -122 88 -176 60z m-90 -1776 l0 -1360 -51 -1 c-29 0
-101 -1 -162 -1 l-110 -1 -2 1240 c-2 1162 -1 1241 15 1256 14 13 303 225 309
227 0 0 1 -612 1 -1360z m-4077 1083 c15 -17 253 -241 290 -274 18 -16 19 -57
19 -1093 l0 -1076 -27 -1 c-31 -1 -207 -1 -269 0 l-40 1 0 1230 c0 677 3 1230
6 1230 3 0 13 -8 21 -17z m-317 -1284 c1 -628 -2 -1146 -6 -1152 -6 -10 -314
-15 -324 -4 -2 2 -4 456 -4 1008 l-1 1004 55 50 c29 28 89 82 132 120 43 39
91 82 108 97 16 15 32 25 35 22 3 -2 5 -518 5 -1145z m3771 -1157 c-3 -4 -230
-6 -317 -3 -17 1 -18 56 -18 1015 l0 1014 94 69 c52 37 104 75 116 83 12 8 45
32 73 53 l52 38 3 -1132 c1 -623 0 -1134 -3 -1137z m-2821 1846 c29 -29 118
-112 221 -208 l80 -75 0 -778 c0 -429 -3 -781 -6 -783 -6 -3 -280 -8 -316 -5
-10 1 -13 195 -13 936 0 514 2 935 5 935 3 0 16 -10 29 -22z m2193 -1845 c-3
-3 -243 -6 -312 -4 l-30 1 1 787 1 786 109 79 c60 43 133 94 162 114 28 20 55
41 60 47 4 7 8 -397 10 -897 1 -500 1 -911 -1 -913z m-3770 1 c-6 -7 -324 -7
-334 -1 -6 4 -10 255 -10 724 -1 670 1 719 17 733 9 8 40 35 67 60 80 73 200
180 230 206 l28 24 3 -872 c1 -479 1 -873 -1 -874z m3142 676 l0 -680 -22 -1
c-171 -5 -317 -2 -318 6 -1 6 -2 255 -3 554 -1 472 1 547 14 562 12 14 158
123 237 177 10 7 34 23 53 37 19 13 36 24 37 25 1 0 2 -306 2 -680z m-871 517
c136 -131 221 -207 230 -207 4 0 8 -223 8 -495 l0 -495 -26 -1 c-30 -1 -303
-1 -310 0 -9 1 -6 1281 3 1281 4 0 47 -38 95 -83z"/>
</g>
</svg>
